<svg xmlns="http://www.w3.org/2000/svg" viewBox="0 0 64 64" width="64" height="64">
  <path d="M50 30c-0.9-7.3-6.9-13-14.3-13-5.5 0-10.3 3.2-12.6 7.9-0.8-0.3-1.6-0.4-2.4-0.4-4.4 0-8 3.6-8 8 0 0.5 0 1 0.1 1.5C8.3 36.8 6 40.3 6 44.5 6 50 10.5 54 16 54h34c5.5 0 10-4.5 10-10s-4.5-10-10-10c-0.5 0-1 0.1-1.5 0.1-0.5-0.7-1.1-1.3-1.8-1.8C51.2 31.5 50.6 30.8 50 30zM16 50c-3.3 0-6-2.7-6-6s2.7-6 6-6h3v-1c0-2.8 2.2-5 5-5 1 0 1.9 0.3 2.7 0.8l1.4 0.8 0.6-1.4C30.2 27 34.4 24 39.7 24 45.5 24 50 28.5 50 34c0 1.4-0.3 2.7-0.8 3.9l-0.8 1.4 1.4 0.6C51.7 40.1 54 43.3 54 47c0 3.3-2.7 6-6 6H16z" fill="#000"/>
</svg>
